Geral
Complete name                    : Homens de Preto 3 BRRip XViD Dublado-DarthHomens de Preto 3 BRRip XViD Dublado-Darth.avi
Format                           : AVI
Format/Info                      : Audio Video Interleave
File size                        : 701 MiB
Duration                         : 1h 45mn
Overall bit rate                 : 926 Kbps
Writing library                  : VirtualDub build 32842/release

Vídeo
ID                               : 0
Format                           : MPEG-4 Visual
Format profile                   : Advanced Simple@L5
Format settings, BVOP            : 2
Format settings, QPel            : Não
Format settings, GMC             : Sem warppoints
Format settings, Matrix          : Default (H.263)
Muxing mode                      : Packed bitstream
Codec ID                         : XVID
Codec ID/Hint                    : XviD
Duration                         : 1h 45mn
Bit rate                         : 789 Kbps
Width                            : 640 pixels
Height                           : 352 pixels
Display aspect ratio             : 16:9
Frame rate                       : 23.976 fps
Color space                      : YUV
Chroma subsampling               : 4:2:0
Bit depth                        : 8 bits
Scan type                        : Progressivo
Bits/(Pixel*Frame)               : 0.146
Stream size                      : 597 MiB (85%)
Writing library                  : XviD 1.0.1 (UTC 2004-06-05)

Áudio
ID                               : 1
Format                           : MPEG Audio
Format version                   : Version 1
Format profile                   : Layer 3
Mode                             : Joint stereo
Mode extension                   : MS Stereo
Codec ID                         : 55
Codec ID/Hint                    : MP3
Duration                         : 1h 45mn
Bit rate mode                    : Constante
Bit rate                         : 128 Kbps
Channel(s)                       : 2 canais
Sampling rate                    : 44.1 KHz
Stream size                      : 96.7 MiB (14%)
Alignment                        : Dividir entre as intercalações
Interleave, duration             : 42 ms (1.00 quadro de vídeo)
Interleave, preload duration     : 501 ms
Idioma: Português-BR